<?xml version="1.0" encoding="UTF-8" standalone="no"?>
<svg
   xmlns:dc="http://purl.org/dc/elements/1.1/"
   xmlns:cc="http://creativecommons.org/ns#"
   xmlns:rdf="http://www.w3.org/1999/02/22-rdf-syntax-ns#"
   xmlns:svg="http://www.w3.org/2000/svg"
   xmlns="http://www.w3.org/2000/svg"
   xmlns:sodipodi="http://sodipodi.sourceforge.net/DTD/sodipodi-0.dtd"
   xmlns:inkscape="http://www.inkscape.org/namespaces/inkscape"
   inkscape:version="1.0 (4035a4f, 2020-05-01)"
   sodipodi:docname="ghost_bike.svg"
   width="98"
   height="122"
   viewBox="0 0 98 122"
   fill="none"
   version="1.1"
   id="svg69">
  <sodipodi:namedview
     inkscape:current-layer="g875"
     inkscape:window-maximized="0"
     inkscape:window-y="25"
     inkscape:window-x="0"
     inkscape:cy="25.54727"
     inkscape:cx="53.910188"
     inkscape:zoom="8.5313168"
     inkscape:snap-smooth-nodes="false"
     showgrid="false"
     id="namedview76"
     inkscape:window-height="844"
     inkscape:window-width="1067"
     inkscape:pageshadow="2"
     inkscape:pageopacity="0"
     guidetolerance="10"
     gridtolerance="10"
     objecttolerance="10"
     borderopacity="1"
     bordercolor="#666666"
     pagecolor="#ffffff" />
  <defs
     id="defs17" />
  <metadata
     id="metadata73">
    <rdf:RDF>
      <cc:Work
         rdf:about="">
        <dc:format>image/svg+xml</dc:format>
        <dc:type
           rdf:resource="http://purl.org/dc/dcmitype/StillImage" />
        <dc:title />
      </cc:Work>
    </rdf:RDF>
  </metadata>
  <g
     id="layer3">
    <g
       id="g875">
      <path
         id="path2"
         d="m 53.0445,112.094 c -1.7831,3.887 -7.3059,3.887 -9.089,0 L 13.2124,45.085 C 11.6928,41.7729 14.1129,38 17.7569,38 h 61.4862 c 3.644,0 6.0641,3.7729 4.5445,7.085 z"
         style="fill:#171615" />
      <circle
         id="circle4"
         r="49"
         cy="49"
         cx="49"
         style="fill:#171615" />
      <path
         d="M 45.0763,63.8434 H 29.7114 l 8.3809,-18.5979 h 8.3808 6.0529 6.5184 m 0,0 L 56.7164,40 h 3.2592 3.2592 m -4.1904,5.2455 0.9312,2.3844 1.8624,3.8149 5.1216,12.3986 m -7.9152,-18.5979 -4.4232,7.153 -2.654,4.2918 m -1.7693,2.8613 1.7693,-2.8613 M 41.3515,50.4911 46.0075,60.9822 36.6955,40 l 2.7936,5.7224 m 9.312,16.2135 3.1661,-5.2456"
         id="path10"
         style="stroke:#ffffff;stroke-width:2;" />
      <path
         d="m 50.0922,63.032 c 0,1.5788 -1.2466,2.8381 -2.7593,2.8381 -1.5126,0 -2.7592,-1.2593 -2.7592,-2.8381 0,-1.5787 1.2466,-2.838 2.7592,-2.838 1.5127,0 2.7593,1.2593 2.7593,2.838 z"
         id="path12"
         style="stroke:#ffffff;" />
      <path
         d="M 40.2801,62.0784 C 40.2801,68.1329 35.494,73 29.6401,73 23.7861,73 19,68.1329 19,62.0784 c 0,-6.0546 4.7861,-10.9217 10.6401,-10.9217 5.8539,0 10.64,4.8671 10.64,10.9217 z"
         id="path14"
         style="stroke:#ffffff;stroke-width:2;" />
      <g
         id="g20">
        <circle
           style="stroke:#ffffff;stroke-width:2"
           id="circle18"
           r="11"
           cy="63"
           cx="66" />
      </g>
      <g
         id="g8" />
      <path
         sodipodi:nodetypes="ccsccc"
         id="path90"
         d="M 42.996949,30.767238 42.84196,16.470488 c 0,0 -0.210802,-4.013291 6.376741,-3.972466 5.528937,0.03426 5.756784,3.934692 5.756784,3.934692 l 0.117216,14.413965 z"
         style="fill:none;stroke:#ffffff;stroke-width:2;stroke-linecap:butt;stroke-linejoin:miter;stroke-miterlimit:4;stroke-dasharray:none;stroke-opacity:1" />
    </g>
  </g>
</svg>
